<svg width="110" height="29" viewBox="0 0 110 29" fill="none" xmlns="http://www.w3.org/2000/svg">
<g id="PayPal 1" clip-path="url(#clip0_64_3297)">
<g id="Group">
<path id="Vector" d="M35.4701 5.88672C35.2466 5.88672 35.0567 6.04512 35.0218 6.26081L32.4348 22.2777C32.4254 22.3362 32.4291 22.396 32.4456 22.453C32.4621 22.51 32.4911 22.5628 32.5305 22.6078C32.57 22.6528 32.6189 22.689 32.674 22.7137C32.7291 22.7385 32.789 22.7514 32.8497 22.7514H35.9177C36.1409 22.7514 36.331 22.5927 36.366 22.3773L37.1259 17.6738C37.1605 17.4584 37.3507 17.2997 37.5742 17.2997H40.3635C43.6226 17.2997 46.3892 14.9782 46.8946 11.8324C47.4041 8.65998 44.8655 5.89361 41.2674 5.88672H35.4701ZM38.4524 9.46231H40.6842C42.5215 9.46231 43.1199 10.5207 42.9307 11.6912C42.7415 12.8642 41.8122 13.7282 40.0349 13.7282H37.7633L38.4524 9.46231ZM53.1344 10.5511C52.3597 10.5539 51.4683 10.7089 50.4676 11.1158C48.172 12.0499 47.0696 13.9805 46.6015 15.3879C46.6015 15.3879 45.1114 19.682 48.4779 22.0411C48.4779 22.0411 51.6001 24.3122 55.1148 21.9011L55.0542 22.2777C55.0448 22.3362 55.0485 22.3959 55.065 22.4529C55.0815 22.5098 55.1104 22.5626 55.1497 22.6076C55.1891 22.6526 55.2379 22.6887 55.293 22.7135C55.348 22.7384 55.4079 22.7513 55.4685 22.7514H58.3809C58.6044 22.7514 58.7943 22.5927 58.8292 22.3773L60.6008 11.4088C60.6103 11.3503 60.6067 11.2905 60.5903 11.2335C60.5738 11.1765 60.5449 11.1236 60.5056 11.0785C60.4662 11.0335 60.4173 10.9973 60.3622 10.9724C60.3071 10.9476 60.2472 10.9346 60.1865 10.9346H57.2741C57.0506 10.9346 56.8604 11.0933 56.8258 11.3086L56.7306 11.8991C56.7306 11.8991 55.4588 10.5426 53.1344 10.5511ZM53.2297 14.0155C53.5641 14.0155 53.87 14.0606 54.1445 14.1467C55.4011 14.5405 56.1136 15.7191 55.9074 16.9967C55.6532 18.5697 54.3318 19.728 52.6371 19.728C52.303 19.728 51.9971 19.6832 51.7223 19.5971C50.466 19.2033 49.749 18.0247 49.9552 16.7472C50.2095 15.1741 51.535 14.0155 53.2297 14.0155Z" fill="#003087"/>
<path id="Vector_2" d="M77.4115 5.88672C77.188 5.88672 76.9981 6.04512 76.9632 6.26081L74.3762 22.2777C74.3668 22.3362 74.3705 22.396 74.387 22.453C74.4035 22.51 74.4325 22.5628 74.4719 22.6078C74.5114 22.6528 74.5603 22.689 74.6154 22.7137C74.6705 22.7385 74.7304 22.7514 74.7911 22.7514H77.8591C78.0823 22.7514 78.2724 22.5927 78.3074 22.3773L79.0673 17.6738C79.1019 17.4584 79.2921 17.2997 79.5156 17.2997H82.3049C85.564 17.2997 88.3303 14.9782 88.8353 11.8324C89.3452 8.65998 86.8069 5.89361 83.2088 5.88672H77.4115ZM80.3938 9.46231H82.6256C84.4629 9.46231 85.0613 10.5207 84.8721 11.6912C84.6829 12.8642 83.754 13.7282 81.9763 13.7282H79.7048L80.3938 9.46231ZM95.0755 10.5511C94.3008 10.5539 93.4094 10.7089 92.4087 11.1158C90.1131 12.0499 89.0107 13.9805 88.5426 15.3879C88.5426 15.3879 87.0531 19.682 90.4197 22.0411C90.4197 22.0411 93.5412 24.3122 97.0562 21.9011L96.9956 22.2777C96.9862 22.3362 96.9899 22.396 97.0064 22.453C97.0229 22.51 97.0519 22.5628 97.0913 22.6078C97.1308 22.6528 97.1797 22.689 97.2348 22.7137C97.2899 22.7385 97.3499 22.7514 97.4105 22.7514H100.323C100.546 22.7514 100.736 22.5927 100.771 22.3773L102.543 11.4088C102.553 11.3503 102.549 11.2904 102.533 11.2333C102.516 11.1763 102.487 11.1234 102.448 11.0783C102.408 11.0332 102.359 10.997 102.304 10.9722C102.249 10.9474 102.189 10.9346 102.128 10.9346H99.2158C98.9923 10.9346 98.8021 11.0933 98.7675 11.3086L98.6723 11.8991C98.6723 11.8991 97.3999 10.5426 95.0755 10.5511ZM95.1708 14.0155C95.5052 14.0155 95.8111 14.0606 96.0856 14.1467C97.3422 14.5405 98.0547 15.7191 97.8485 16.9967C97.5943 18.5697 96.2728 19.728 94.5782 19.728C94.2441 19.728 93.9382 19.6832 93.6634 19.5971C92.4071 19.2033 91.6901 18.0247 91.8963 16.7472C92.1506 15.1741 93.4761 14.0155 95.1708 14.0155Z" fill="#0070E0"/>
<path id="Vector_3" d="M61.9856 10.9349C61.7547 10.9349 61.5905 11.155 61.6611 11.3694L64.8541 21.0428L61.9669 25.6013C61.8268 25.8227 61.9897 26.1085 62.2562 26.1085H65.6686C65.7661 26.1084 65.8621 26.0837 65.9471 26.0369C66.032 25.9901 66.1032 25.9226 66.1537 25.8411L75.0714 11.4389C75.2083 11.2176 75.0448 10.9346 74.7799 10.9346H71.3678C71.2693 10.9347 71.1725 10.9598 71.0869 11.0075C71.0013 11.0552 70.93 11.1238 70.8798 11.2066L67.3696 16.9923L65.5878 11.2495C65.5297 11.0626 65.353 10.9346 65.1533 10.9346L61.9856 10.9349Z" fill="#003087"/>
<path id="Vector_4" d="M105.858 5.88672C105.634 5.88672 105.444 6.04543 105.409 6.26081L102.822 22.2771C102.812 22.3357 102.816 22.3955 102.832 22.4526C102.849 22.5096 102.878 22.5625 102.917 22.6076C102.957 22.6527 103.005 22.6889 103.061 22.7137C103.116 22.7385 103.176 22.7514 103.237 22.7514H106.304C106.528 22.7514 106.718 22.5926 106.753 22.3773L109.34 6.36036C109.349 6.3019 109.346 6.24215 109.329 6.18521C109.313 6.12828 109.284 6.0755 109.244 6.0305C109.205 5.9855 109.156 5.94936 109.101 5.92454C109.046 5.89972 108.986 5.88682 108.926 5.88672H105.858Z" fill="#0070E0"/>
<path id="Vector_5" d="M9.89232 5.88672C9.69469 5.88688 9.5036 5.95584 9.35338 6.08121C9.20315 6.20658 9.10363 6.38015 9.07273 6.57072L7.71094 15.0029C7.77443 14.6091 8.122 14.3189 8.53051 14.3189H12.521C16.5372 14.3189 19.9451 11.4586 20.5678 7.58248C20.6141 7.2931 20.6404 7.00099 20.6464 6.70815C19.6257 6.18568 18.4268 5.88672 17.1131 5.88672H9.89232Z" fill="#001C64"/>
<path id="Vector_6" d="M20.6482 6.70898C20.6422 7.00182 20.616 7.29393 20.5696 7.58332C19.9469 11.4594 16.5387 14.3197 12.5229 14.3197H8.53238C8.12419 14.3197 7.77629 14.6096 7.7128 15.0037L6.46065 22.7522L5.67634 27.6132C5.66103 27.7071 5.66677 27.8031 5.69317 27.8946C5.71957 27.9862 5.76601 28.071 5.82927 28.1433C5.89252 28.2157 5.97109 28.2737 6.05956 28.3135C6.14803 28.3533 6.24429 28.3739 6.34169 28.3738H10.6731C10.8707 28.3737 11.0618 28.3047 11.212 28.1794C11.3622 28.054 11.4617 27.8804 11.4926 27.6898L12.6335 20.6254C12.6644 20.4347 12.764 20.261 12.9144 20.1357C13.0647 20.0103 13.256 19.9414 13.4538 19.9414H16.0039C20.0201 19.9414 23.4279 17.0811 24.0506 13.205C24.4928 10.4539 23.0736 7.95052 20.6482 6.70898Z" fill="#0070E0"/>
<path id="Vector_7" d="M4.97296 0.266602C4.56477 0.266602 4.21687 0.556481 4.15338 0.949978L0.754459 21.9916C0.690008 22.391 1.00618 22.7523 1.42046 22.7523H6.46079L7.71229 15.0038L9.07409 6.57163C9.10499 6.38106 9.20451 6.20749 9.35474 6.08212C9.50496 5.95675 9.69605 5.88779 9.89368 5.88763H17.1144C18.4285 5.88763 19.6271 6.1869 20.6477 6.70906C20.7176 3.18011 17.7349 0.266602 13.6341 0.266602H4.97296Z" fill="#003087"/>
</g>
</g>
<defs>
<clipPath id="clip0_64_3297">
<rect width="108.594" height="28.1067" fill="white" transform="translate(0.742188 0.26709)"/>
</clipPath>
</defs>
</svg>
